<svg id="Layer_1" data-name="Layer 1" xmlns="http://www.w3.org/2000/svg" viewBox="0 0 432 166.4"><defs><style>.cls-1{fill:#393f42;}.cls-2{fill:#ff96ad;}</style></defs><title>Zee_Logo</title><path class="cls-1" d="M217.21,136.3,124.37,268.19l92.23-14.78L217,301,40,301,143.43,183.48,93.91,173.27l-4.16-37Z" transform="translate(-40 -134.6)"/><path class="cls-1" d="M288.92,231.38l15.7-1.64q-2.17-12.36-13.57-12.36-7.6,0-12.38,6.62t-4.78,17q0,10.8,4.61,17.48t12.1,6.68q6.08,0,11.73-6.23l41.54,15.83c-10.78,8.68-41.18,25.69-54.35,25.69q-24.1,0-40.49-16.59t-16.39-41.08q0-24.38,16.56-41.19t40.65-16.81q23.56,0,39.57,16.42t16,40.47q0,2.45-.44,7.79l-62.43-.72" transform="translate(-40 -134.6)"/><circle class="cls-2" cx="21.68" cy="21.68" r="21.68"/><path class="cls-1" d="M415.48,231.38l15.7-1.64q-2.17-12.36-13.57-12.36-7.6,0-12.38,6.62t-4.78,17q0,10.8,4.61,17.48t12.1,6.68q6.08,0,11.73-6.23l41.54,15.83c-10.78,8.68-41.18,25.69-54.35,25.69q-24.1,0-40.49-16.59t-16.39-41.08q0-24.38,16.56-41.19t40.65-16.81q23.56,0,39.57,16.42t16,40.47q0,2.45-.44,7.79l-62.43-.72" transform="translate(-40 -134.6)"/></svg>